<?xml version="1.0" encoding="UTF-8" standalone="no"?>
<!-- Created with Inkscape (http://www.inkscape.org/) -->

<svg
   xmlns:dc="http://purl.org/dc/elements/1.1/"
   xmlns:cc="http://creativecommons.org/ns#"
   xmlns:rdf="http://www.w3.org/1999/02/22-rdf-syntax-ns#"
   xmlns:svg="http://www.w3.org/2000/svg"
   xmlns="http://www.w3.org/2000/svg"
   xmlns:sodipodi="http://sodipodi.sourceforge.net/DTD/sodipodi-0.dtd"
   xmlns:inkscape="http://www.inkscape.org/namespaces/inkscape"
   width="240.36899"
   height="132.74358"
   viewBox="0 0 240.36899 132.74358"
   id="svg5389"
   version="1.1"
   inkscape:version="0.91 r13725"
   sodipodi:docname="logo.svg"
   inkscape:export-filename="/home/kiuma/Documenti/RedSS/grafica/logo/v0.3/logo300x300.png"
   inkscape:export-xdpi="106.07162"
   inkscape:export-ydpi="106.07162">
  <defs
     id="defs5391" />
  <sodipodi:namedview
     id="base"
     pagecolor="#a0a0a0"
     bordercolor="#666666"
     borderopacity="1.0"
     inkscape:pageopacity="0"
     inkscape:pageshadow="2"
     inkscape:zoom="3.959798"
     inkscape:cx="112.46192"
     inkscape:cy="13.335365"
     inkscape:document-units="px"
     inkscape:current-layer="layer1"
     showgrid="false"
     fit-margin-top="0"
     fit-margin-left="0"
     fit-margin-right="0"
     fit-margin-bottom="0"
     inkscape:window-width="2880"
     inkscape:window-height="1494"
     inkscape:window-x="0"
     inkscape:window-y="0"
     inkscape:window-maximized="1"
     units="px" />
  <metadata
     id="metadata5394">
    <rdf:RDF>
      <cc:Work
         rdf:about="">
        <dc:format>image/svg+xml</dc:format>
        <dc:type
           rdf:resource="http://purl.org/dc/dcmitype/StillImage" />
        <dc:title></dc:title>
      </cc:Work>
    </rdf:RDF>
  </metadata>
  <g
     inkscape:label="Livello 1"
     inkscape:groupmode="layer"
     id="layer1"
     transform="translate(-202.67264,-573.66149)">
    <g
       id="g6283"
       style="fill:#ffffff;fill-opacity:1"
       transform="matrix(0.94430849,0,0,0.94430849,17.980396,-21.863961)">
      <path
         id="path5025"
         d="m 220.26764,688.71114 0,33.214 -24.661,0 0,-91.277 29.905,0 c 24.807,0 37.21,8.991 37.21,26.972 0,10.572 -5.161,18.751 -15.483,24.536 l 30.765,39.77 -27.97,0 -23.522,-33.214 -6.244,0 z m 0,-18.543 4.62,0 c 8.615,0 12.924,-3.809 12.924,-11.425 0,-6.285 -4.226,-9.428 -12.674,-9.428 l -4.87,0 0,20.853 z"
         style="fill:#ffffff;fill-opacity:1"
         inkscape:connector-curvature="0" />
      <path
         id="path5027"
         d="m 357.91464,721.92414 -65.064,0 0,-91.277 65.064,0 0,19.792 -40.402,0 0,14.359 27.346,0 0,19.791 -27.346,0 0,17.231 40.402,0 0,20.104 z"
         style="fill:#ffffff;fill-opacity:1"
         inkscape:connector-curvature="0" />
      <path
         id="path5029"
         d="m 450.12964,674.35014 c 0,15.234 -4.194,26.972 -12.58,35.213 -8.388,8.241 -20.177,12.361 -35.369,12.361 l -29.53,0 0,-91.277 31.591,0 c 14.65,0 25.962,3.746 33.933,11.238 7.969,7.493 11.955,18.315 11.955,32.465 z m -25.598,0.874 c 0,-8.365 -1.654,-14.567 -4.964,-18.604 -3.309,-4.037 -8.335,-6.056 -15.077,-6.056 l -7.18,0 0,51.132 5.494,0 c 7.492,0 12.986,-2.175 16.482,-6.523 3.497,-4.35 5.245,-10.999 5.245,-19.949 z"
         style="fill:#ffffff;fill-opacity:1"
         inkscape:connector-curvature="0" />
      <g
         id="g5031"
         transform="translate(77.114643,976.98614)"
         style="fill:#ffffff;fill-opacity:1">
        <path
           id="path5033"
           d="m 304.23,-242.727 c 0,1.766 -0.49,3.114 -1.47,4.048 -0.98,0.934 -2.392,1.4 -4.233,1.4 l -2.991,0 0,-10.691 3.306,0 c 1.701,0 3.024,0.458 3.971,1.375 0.944,0.916 1.417,2.206 1.417,3.868 z m -1.842,0.059 c 0,-2.56 -1.197,-3.84 -3.592,-3.84 l -1.514,0 0,7.76 1.244,0 c 2.575,0 3.862,-1.307 3.862,-3.92 z"
           inkscape:connector-curvature="0"
           style="fill:#ffffff;fill-opacity:1" />
        <path
           id="path5035"
           d="m 314.072,-237.278 -6.048,0 0,-10.691 6.048,0 0,1.478 -4.3,0 0,2.91 4.028,0 0,1.463 -4.028,0 0,3.355 4.3,0 0,1.485 z"
           inkscape:connector-curvature="0"
           style="fill:#ffffff;fill-opacity:1" />
        <path
           id="path5037"
           d="m 323.97,-247.97 1.814,0 -3.744,10.691 -1.843,0 -3.729,-10.691 1.799,0 2.23,6.647 c 0.117,0.316 0.241,0.725 0.373,1.225 0.132,0.5 0.217,0.871 0.256,1.115 0.063,-0.371 0.16,-0.8 0.293,-1.287 0.131,-0.487 0.238,-0.848 0.321,-1.082 l 2.23,-6.618 z"
           inkscape:connector-curvature="0"
           style="fill:#ffffff;fill-opacity:1" />
        <path
           id="path5039"
           d="m 334.742,-237.278 -6.048,0 0,-10.691 6.048,0 0,1.478 -4.301,0 0,2.91 4.029,0 0,1.463 -4.029,0 0,3.355 4.301,0 0,1.485 z"
           inkscape:connector-curvature="0"
           style="fill:#ffffff;fill-opacity:1" />
        <path
           id="path5041"
           d="m 338.549,-237.278 0,-10.691 1.747,0 0,9.192 4.527,0 0,1.499 -6.274,0 z"
           inkscape:connector-curvature="0"
           style="fill:#ffffff;fill-opacity:1" />
        <path
           id="path5043"
           d="m 357.656,-242.639 c 0,1.74 -0.436,3.093 -1.305,4.059 -0.871,0.965 -2.104,1.447 -3.697,1.447 -1.613,0 -2.854,-0.479 -3.719,-1.437 -0.865,-0.958 -1.297,-2.319 -1.297,-4.084 0,-1.765 0.434,-3.12 1.305,-4.065 0.87,-0.946 2.112,-1.419 3.726,-1.419 1.59,0 2.818,0.48 3.686,1.44 0.867,0.961 1.301,2.314 1.301,4.059 z m -8.161,0 c 0,1.316 0.266,2.314 0.798,2.994 0.531,0.681 1.318,1.021 2.361,1.021 1.039,0 1.822,-0.337 2.352,-1.01 0.529,-0.672 0.793,-1.674 0.793,-3.005 0,-1.312 -0.262,-2.306 -0.786,-2.983 -0.524,-0.677 -1.306,-1.017 -2.344,-1.017 -1.048,0 -1.839,0.339 -2.372,1.017 -0.536,0.678 -0.802,1.672 -0.802,2.983 z"
           inkscape:connector-curvature="0"
           style="fill:#ffffff;fill-opacity:1" />
        <path
           id="path5045"
           d="m 368.529,-244.737 c 0,1.116 -0.366,1.972 -1.098,2.566 -0.732,0.594 -1.771,0.893 -3.123,0.893 l -1.111,0 0,4 -1.747,0 0,-10.691 3.079,0 c 1.335,0 2.336,0.273 3.002,0.819 0.665,0.546 0.998,1.35 0.998,2.413 z m -5.332,1.989 0.93,0 c 0.896,0 1.555,-0.156 1.975,-0.469 0.419,-0.312 0.628,-0.799 0.628,-1.462 0,-0.614 -0.187,-1.072 -0.563,-1.375 -0.375,-0.303 -0.96,-0.454 -1.754,-0.454 l -1.215,0 0,3.76 z"
           inkscape:connector-curvature="0"
           style="fill:#ffffff;fill-opacity:1" />
      </g>
      <g
         id="g5047"
         transform="translate(77.114643,976.98614)"
         style="fill:#ffffff;fill-opacity:1">
        <path
           id="path5049"
           d="m 120.24,-241.549 0,4.271 -1.748,0 0,-10.691 3.02,0 c 1.38,0 2.401,0.259 3.064,0.775 0.663,0.516 0.994,1.297 0.994,2.34 0,1.331 -0.691,2.279 -2.076,2.845 l 3.02,4.731 -1.988,0 -2.561,-4.271 -1.725,0 z m 0,-1.448 1.213,0 c 0.814,0 1.404,-0.15 1.77,-0.453 0.366,-0.303 0.549,-0.751 0.549,-1.346 0,-0.604 -0.197,-1.038 -0.592,-1.302 -0.395,-0.263 -0.99,-0.395 -1.785,-0.395 l -1.154,0 0,3.496 z"
           inkscape:connector-curvature="0"
           style="fill:#ffffff;fill-opacity:1" />
        <path
           id="path5051"
           d="m 135.609,-237.278 -6.048,0 0,-10.691 6.048,0 0,1.478 -4.3,0 0,2.91 4.029,0 0,1.463 -4.029,0 0,3.355 4.3,0 0,1.485 z"
           inkscape:connector-curvature="0"
           style="fill:#ffffff;fill-opacity:1" />
        <path
           id="path5053"
           d="m 145.582,-240.182 c 0,0.95 -0.344,1.696 -1.031,2.237 -0.688,0.542 -1.635,0.812 -2.844,0.812 -1.209,0 -2.199,-0.187 -2.969,-0.562 l 0,-1.652 c 0.486,0.229 1.005,0.409 1.553,0.541 0.549,0.132 1.06,0.197 1.533,0.197 0.691,0 1.202,-0.132 1.531,-0.395 0.329,-0.264 0.494,-0.617 0.494,-1.061 0,-0.4 -0.151,-0.739 -0.454,-1.017 -0.302,-0.278 -0.927,-0.607 -1.872,-0.987 -0.975,-0.396 -1.662,-0.846 -2.062,-1.353 -0.399,-0.508 -0.6,-1.116 -0.6,-1.828 0,-0.893 0.316,-1.595 0.95,-2.106 0.634,-0.511 1.484,-0.768 2.553,-0.768 1.023,0 2.042,0.224 3.057,0.672 l -0.557,1.427 c -0.95,-0.399 -1.799,-0.6 -2.545,-0.6 -0.564,0 -0.994,0.123 -1.287,0.369 -0.292,0.246 -0.438,0.571 -0.438,0.977 0,0.277 0.058,0.516 0.175,0.713 0.117,0.197 0.31,0.384 0.577,0.56 0.269,0.175 0.752,0.406 1.449,0.694 0.784,0.327 1.359,0.631 1.725,0.914 0.366,0.283 0.635,0.602 0.805,0.958 0.172,0.356 0.257,0.776 0.257,1.258 z"
           inkscape:connector-curvature="0"
           style="fill:#ffffff;fill-opacity:1" />
        <path
           id="path5055"
           d="m 155.197,-237.278 -6.049,0 0,-10.691 6.049,0 0,1.478 -4.301,0 0,2.91 4.029,0 0,1.463 -4.029,0 0,3.355 4.301,0 0,1.485 z"
           inkscape:connector-curvature="0"
           style="fill:#ffffff;fill-opacity:1" />
        <path
           id="path5057"
           d="m 165.637,-237.278 -1.067,-2.97 -4.088,0 -1.046,2.97 -1.843,0 4,-10.735 1.901,0 4,10.735 -1.857,0 z m -1.528,-4.476 -1.002,-2.91 c -0.073,-0.195 -0.174,-0.502 -0.303,-0.922 -0.13,-0.419 -0.219,-0.726 -0.268,-0.922 -0.131,0.601 -0.324,1.256 -0.578,1.968 l -0.965,2.786 3.116,0 z"
           inkscape:connector-curvature="0"
           style="fill:#ffffff;fill-opacity:1" />
        <path
           id="path5059"
           d="m 172.152,-241.549 0,4.271 -1.748,0 0,-10.691 3.02,0 c 1.38,0 2.4,0.259 3.064,0.775 0.662,0.517 0.994,1.297 0.994,2.34 0,1.331 -0.692,2.279 -2.076,2.845 l 3.02,4.731 -1.989,0 -2.56,-4.271 -1.725,0 z m 0,-1.448 1.213,0 c 0.814,0 1.404,-0.15 1.77,-0.453 0.366,-0.303 0.549,-0.751 0.549,-1.346 0,-0.604 -0.197,-1.038 -0.592,-1.302 -0.396,-0.263 -0.99,-0.395 -1.785,-0.395 l -1.154,0 0,3.496 z"
           inkscape:connector-curvature="0"
           style="fill:#ffffff;fill-opacity:1" />
        <path
           id="path5061"
           d="m 186.022,-246.624 c -1.005,0 -1.794,0.355 -2.369,1.067 -0.575,0.712 -0.863,1.694 -0.863,2.947 0,1.312 0.276,2.304 0.83,2.976 0.554,0.673 1.354,1.01 2.402,1.01 0.453,0 0.892,-0.045 1.315,-0.136 0.425,-0.09 0.865,-0.206 1.324,-0.347 l 0,1.499 c -0.838,0.316 -1.789,0.475 -2.852,0.475 -1.565,0 -2.768,-0.474 -3.605,-1.422 -0.837,-0.948 -1.258,-2.305 -1.258,-4.069 0,-1.112 0.203,-2.084 0.61,-2.918 0.407,-0.834 0.996,-1.473 1.767,-1.916 0.77,-0.443 1.674,-0.665 2.713,-0.665 1.092,0 2.102,0.229 3.027,0.688 l -0.629,1.455 c -0.361,-0.171 -0.742,-0.321 -1.145,-0.45 -0.403,-0.129 -0.824,-0.194 -1.267,-0.194 z"
           inkscape:connector-curvature="0"
           style="fill:#ffffff;fill-opacity:1" />
        <path
           id="path5063"
           d="m 200.894,-237.278 -1.756,0 0,-4.819 -4.928,0 0,4.819 -1.748,0 0,-10.691 1.748,0 0,4.373 4.928,0 0,-4.373 1.756,0 0,10.691 z"
           inkscape:connector-curvature="0"
           style="fill:#ffffff;fill-opacity:1" />
      </g>
      <g
         id="g5065"
         transform="translate(77.114643,976.98614)"
         style="fill:#ffffff;fill-opacity:1">
        <path
           id="path5067"
           d="m 221.784,-237.278 -6.048,0 0,-10.691 6.048,0 0,1.478 -4.3,0 0,2.91 4.029,0 0,1.463 -4.029,0 0,3.355 4.3,0 0,1.485 z"
           inkscape:connector-curvature="0"
           style="fill:#ffffff;fill-opacity:1" />
        <path
           id="path5069"
           d="m 234.5,-237.278 -2.143,0 -5.258,-8.52 -0.059,0 0.036,0.476 c 0.068,0.906 0.103,1.735 0.103,2.486 l 0,5.558 -1.587,0 0,-10.691 2.12,0 5.244,8.476 0.044,0 c -0.01,-0.112 -0.029,-0.521 -0.058,-1.225 -0.03,-0.705 -0.044,-1.255 -0.044,-1.649 l 0,-5.602 1.602,0 0,10.691 z"
           inkscape:connector-curvature="0"
           style="fill:#ffffff;fill-opacity:1" />
        <path
           id="path5071"
           d="m 243.192,-243.077 3.935,0 0,5.367 c -0.644,0.21 -1.262,0.358 -1.854,0.446 -0.593,0.088 -1.232,0.131 -1.92,0.131 -1.619,0 -2.867,-0.479 -3.744,-1.437 -0.877,-0.958 -1.316,-2.31 -1.316,-4.055 0,-1.722 0.494,-3.068 1.484,-4.04 0.99,-0.973 2.353,-1.459 4.088,-1.459 1.116,0 2.174,0.215 3.174,0.644 l -0.615,1.455 c -0.867,-0.399 -1.734,-0.6 -2.603,-0.6 -1.141,0 -2.043,0.358 -2.706,1.075 -0.662,0.717 -0.994,1.696 -0.994,2.939 0,1.307 0.299,2.3 0.896,2.979 0.597,0.68 1.456,1.021 2.577,1.021 0.565,0 1.17,-0.07 1.813,-0.213 l 0,-2.756 -2.216,0 0,-1.497 z"
           inkscape:connector-curvature="0"
           style="fill:#ffffff;fill-opacity:1" />
        <path
           id="path5073"
           d="m 257.824,-237.278 -1.068,-2.97 -4.088,0 -1.045,2.97 -1.844,0 4,-10.735 1.901,0 4.001,10.735 -1.857,0 z m -1.53,-4.476 -1.002,-2.91 c -0.072,-0.195 -0.174,-0.502 -0.303,-0.922 -0.129,-0.419 -0.219,-0.726 -0.268,-0.922 -0.131,0.601 -0.324,1.256 -0.577,1.968 l -0.966,2.786 3.116,0 z"
           inkscape:connector-curvature="0"
           style="fill:#ffffff;fill-opacity:1" />
        <path
           id="path5075"
           d="m 266.962,-243.077 3.934,0 0,5.367 c -0.643,0.21 -1.261,0.358 -1.854,0.446 -0.592,0.088 -1.231,0.131 -1.919,0.131 -1.618,0 -2.866,-0.479 -3.744,-1.437 -0.878,-0.958 -1.316,-2.31 -1.316,-4.055 0,-1.722 0.495,-3.068 1.484,-4.04 0.989,-0.973 2.353,-1.459 4.088,-1.459 1.116,0 2.175,0.215 3.174,0.644 l -0.614,1.455 c -0.867,-0.399 -1.736,-0.6 -2.604,-0.6 -1.141,0 -2.043,0.358 -2.705,1.075 -0.664,0.717 -0.995,1.696 -0.995,2.939 0,1.307 0.299,2.3 0.896,2.979 0.598,0.68 1.457,1.021 2.578,1.021 0.565,0 1.17,-0.07 1.813,-0.213 l 0,-2.756 -2.216,0 0,-1.497 z"
           inkscape:connector-curvature="0"
           style="fill:#ffffff;fill-opacity:1" />
        <path
           id="path5077"
           d="m 281.008,-237.278 -6.048,0 0,-10.691 6.048,0 0,1.478 -4.3,0 0,2.91 4.029,0 0,1.463 -4.029,0 0,3.355 4.3,0 0,1.485 z"
           inkscape:connector-curvature="0"
           style="fill:#ffffff;fill-opacity:1" />
      </g>
      <path
         id="rect5079"
         transform="translate(195.58464,630.64714)"
         d="m 0,115.99023 0,24.58204 254.54492,0 0,-24.58204 -254.54492,0 z m 27.835938,4.30665 c 2.325999,0 4.124484,0.69484 5.396484,2.08984 1.268,1.394 1.902344,3.35762 1.902344,5.89062 0,2.526 -0.637157,4.48863 -1.910157,5.89063 -1.273,1.4 -3.077156,2.10156 -5.410156,2.10156 -2.362,0 -4.177359,-0.69494 -5.443359,-2.08594 -1.268,-1.391 -1.898438,-3.36573 -1.898438,-5.92773 0,-2.562 0.637157,-4.52739 1.910156,-5.90039 1.275001,-1.373 3.091126,-2.0586 5.453126,-2.05859 z m -16.306641,0.0215 c 1.498,0 2.989609,0.32456 4.474609,0.97656 l -0.8125,2.06836 c -1.393,-0.58 -2.633609,-0.86914 -3.724609,-0.86914 -0.828,0 -1.458719,0.17816 -1.8867189,0.53516 -0.428,0.357 -0.640625,0.82901 -0.640625,1.41601 0,0.403 0.083859,0.74816 0.2558594,1.03516 0.172,0.286 0.4546534,0.5585 0.8476565,0.8125 0.393,0.254 1.097187,0.58981 2.117187,1.00781 1.148,0.474 1.990391,0.91813 2.525391,1.32813 0.535,0.41 0.927734,0.87267 1.177734,1.38867 0.251,0.516 0.376953,1.12517 0.376953,1.82617 0,1.38 -0.503765,2.46305 -1.509765,3.24805 -1.006,0.786 -2.396063,1.17773 -4.164063,1.17773 -1.7709965,0 -3.2177029,-0.27141 -4.3457029,-0.81641 l 0,-2.39843 c 0.715,0.332 1.4714375,0.59415 2.2734375,0.78515 0.802,0.191 1.5501874,0.28711 2.2421874,0.28711 1.014,0 1.761188,-0.19122 2.242188,-0.57422 0.482,-0.382 0.722656,-0.8941 0.722656,-1.53711 0,-0.58 -0.222063,-1.07256 -0.664063,-1.47656 -0.442,-0.404 -1.353281,-0.88159 -2.738281,-1.43359 -1.4269985,-0.573 -2.4355311,-1.22689 -3.0195311,-1.96289 -0.586,-0.736 -0.8769531,-1.6213 -0.8769531,-2.6543 0,-1.295 0.4645781,-2.31264 1.3925781,-3.05664 0.928,-0.744 2.1713736,-1.11328 3.7343751,-1.11328 z m 138.298823,0 c 1.498,0 2.99157,0.32456 4.47657,0.97656 l -0.81446,2.06836 c -1.391,-0.58 -2.6326,-0.86914 -3.72461,-0.86914 -0.82798,0 -1.45481,0.17816 -1.88281,0.53516 -0.429,0.357 -0.64453,0.82901 -0.64453,1.41601 0,0.403 0.0859,0.74816 0.25586,1.03516 0.172,0.286 0.45366,0.5585 0.84766,0.8125 0.392,0.254 1.10014,0.58981 2.11914,1.00781 1.149,0.474 1.99039,0.91813 2.52539,1.32813 0.535,0.41 0.92873,0.87267 1.17773,1.38867 0.251,0.516 0.375,1.12517 0.375,1.82617 0,1.38 -0.50181,2.46305 -1.50781,3.24805 -1.007,0.786 -2.39506,1.17773 -4.16406,1.17773 -1.769,0 -3.21871,-0.27141 -4.34571,-0.81641 l 0,-2.39843 c 0.713,0.332 1.47144,0.59415 2.27344,0.78515 0.802,0.191 1.55019,0.28711 2.24219,0.28711 1.013,0 1.76019,-0.19122 2.24219,-0.57422 0.48,-0.382 0.72265,-0.8941 0.72265,-1.53711 0,-0.58 -0.22011,-1.07256 -0.66211,-1.47656 -0.443,-0.403 -1.35523,-0.88159 -2.74023,-1.43359 -1.428,-0.573 -2.43453,-1.22689 -3.01953,-1.96289 -0.585,-0.736 -0.87891,-1.6213 -0.87891,-2.6543 0,-1.295 0.46553,-2.31264 1.39453,-3.05664 0.926,-0.743 2.17043,-1.11328 3.73242,-1.11328 z m 28.97266,0 c 1.498,0 2.98866,0.32456 4.47266,0.97656 l -0.8125,2.06836 c -1.392,-0.58 -2.63261,-0.86914 -3.72461,-0.86914 -0.828,0 -1.45677,0.17816 -1.88477,0.53516 -0.429,0.357 -0.64258,0.82901 -0.64258,1.41601 0,0.403 0.0868,0.74816 0.25782,1.03516 0.172,0.286 0.4527,0.5585 0.8457,0.8125 0.393,0.254 1.10014,0.58981 2.11914,1.00781 1.148,0.474 1.99039,0.91813 2.52539,1.32813 0.536,0.41 0.92874,0.87267 1.17774,1.38867 0.251,0.516 0.375,1.12517 0.375,1.82617 0,1.38 -0.50082,2.46305 -1.50782,3.24805 -1.007,0.786 -2.39606,1.17773 -4.16406,1.17773 -1.771,0 -3.21966,-0.27141 -4.34766,-0.81641 l 0,-2.39843 c 0.714,0.332 1.47339,0.59415 2.27539,0.78515 0.80201,0.191 1.55119,0.28711 2.24219,0.28711 1.014,0 1.76119,-0.19122 2.24219,-0.57422 0.481,-0.382 0.72266,-0.8941 0.72266,-1.53711 0,-0.58 -0.22207,-1.07256 -0.66407,-1.47656 -0.442,-0.404 -1.35523,-0.88159 -2.74023,-1.43359 -1.427,-0.573 -2.43158,-1.22689 -3.01758,-1.96289 -0.585,-0.736 -0.87695,-1.6213 -0.87695,-2.6543 0,-1.295 0.46262,-2.31264 1.39062,-3.05664 0.927,-0.743 2.17433,-1.11328 3.73633,-1.11328 z m 64.8125,0 c 1.499,0 2.98961,0.32456 4.47461,0.97656 l -0.81445,2.06836 c -1.392,-0.58 -2.63161,-0.86914 -3.72461,-0.86914 -0.828,0 -1.45677,0.17816 -1.88477,0.53516 -0.428,0.357 -0.64258,0.82901 -0.64258,1.41601 0,0.403 0.0858,0.74816 0.25782,1.03516 0.17,0.286 0.4537,0.5585 0.8457,0.8125 0.392,0.254 1.09914,0.58981 2.11914,1.00781 1.149,0.474 1.99039,0.91813 2.52539,1.32813 0.535,0.41 0.92774,0.87267 1.17774,1.38867 0.25,0.516 0.375,1.12517 0.375,1.82617 0,1.38 -0.50082,2.46305 -1.50782,3.24805 -1.006,0.786 -2.39506,1.17773 -4.16406,1.17773 -1.769,0 -3.2177,-0.27141 -4.3457,-0.81641 l 0,-2.39843 c 0.713,0.332 1.47144,0.59415 2.27343,0.78515 0.80201,0.191 1.55019,0.28711 2.24219,0.28711 1.014,0 1.76019,-0.19122 2.24219,-0.57422 0.482,-0.382 0.72266,-0.8941 0.72266,-1.53711 0,-0.58 -0.22107,-1.07256 -0.66407,-1.47656 -0.442,-0.403 -1.35328,-0.88159 -2.73828,-1.43359 -1.427,-0.573 -2.43553,-1.22689 -3.01953,-1.96289 -0.586,-0.736 -0.87695,-1.6213 -0.87695,-2.6543 0,-1.295 0.46458,-2.31264 1.39258,-3.05664 0.928,-0.744 2.17137,-1.11328 3.73437,-1.11328 z m -148.630858,0.1582 2.785156,0 5.853512,15.58008 -2.7207,0 -1.560546,-4.30859 -5.984375,0 -1.529297,4.30859 -2.697266,0 5.853516,-15.58008 z m -54.513672,0.0625 8.830078,0 0,2.14453 -6.292969,0 0,4.85157 5.898438,0 0,2.15429 -5.898438,0 0,6.36719 -2.537109,0 0,-15.51758 z m 11.884766,0 11.763672,0 0,2.17774 -4.603516,0 0,13.33984 -2.558594,0 0,-13.33984 -4.601562,0 0,-2.17774 z m 14.197265,0 2.609375,0 2.238282,9.04297 c 0.349997,1.45 0.599046,2.73275 0.748046,3.84375 0.079,-0.602 0.197469,-1.27358 0.355469,-2.01758 0.158,-0.744 0.298733,-1.34368 0.427735,-1.80468 l 2.546874,-9.06446 2.53711,0 2.611328,9.10742 c 0.25,0.842 0.514969,2.10135 0.792969,3.77735 0.107,-1.012 0.362531,-2.30028 0.769531,-3.86328 l 2.226562,-9.02149 2.591797,0 -4.080078,15.51758 -2.783203,0 -2.654297,-9.25391 c -0.113,-0.403 -0.255734,-0.98609 -0.427734,-1.74609 -0.172,-0.762 -0.274547,-1.28894 -0.310547,-1.58594 -0.071,0.452 -0.187656,1.03972 -0.347656,1.76172 -0.16,0.722 -0.293391,1.25928 -0.400391,1.61328 l -2.591797,9.21094 -2.78125,0 -2.023437,-7.76953 -2.054688,-7.74805 z m 41.107419,0 4.41992,0 c 2.02,0 3.51633,0.375 4.48633,1.125 0.97,0.75 1.45508,1.88249 1.45508,3.39649 0,1.932 -1.01501,3.3079 -3.04101,4.1289 l 4.42187,6.86719 -2.91211,0 -3.74609,-6.19922 -2.52539,0 0,0.002 0,6.19726 -2.5586,0 0,-15.51758 z m 15.98438,0 8.85156,0 0,2.14453 -6.29492,0 0,4.22461 5.89844,0 0,2.12305 -5.89844,0 0,4.87109 6.29492,0 0,2.1543 -8.85156,0 0,-15.51758 z m 33.83398,0 2.78321,0 3.70312,7.08008 3.70313,-7.08008 2.7832,0 -5.21289,9.5 0,6.01758 -2.56836,0 0,-5.93359 -5.19141,-9.58399 z m 29.2793,0 11.76367,0 0,2.17774 -4.60156,0 0,13.33984 -2.55859,0 0,-13.33984 -4.60352,0 0,-2.17774 z m 16.13476,0 8.85157,0 0,2.14453 -6.29297,0 0,4.22461 5.89648,0 0,2.12305 -5.89648,0 0,4.87109 6.29297,0 0,2.1543 -8.85157,0 0,-15.51758 z m 14.20899,0 3.60547,0 4.34765,12.34571 0.0625,0 4.47461,-12.34571 3.61719,0 0,15.51758 -2.46289,0 0,-7.67187 c 0,-0.771 0.0226,-1.77663 0.0606,-3.01563 0.039,-1.238 0.0735,-1.988 0.10351,-2.25 l -0.0879,0 -4.69726,12.9375 -2.26172,0 -4.53711,-12.95898 -0.0859,0 c 0.121,1.925 0.18359,3.73006 0.1836,5.41406 l 0,7.54492 -2.32227,0 0,-15.51758 z M 27.835938,122.4707 c -1.534,0 -2.69161,0.49257 -3.47461,1.47657 -0.781,0.984 -1.171875,2.42707 -1.171875,4.33007 0,1.91 0.390016,3.35871 1.166016,4.34571 0.779,0.988 1.932984,1.48047 3.458984,1.48047 1.521,0 2.667406,-0.48785 3.441406,-1.46485 0.774,-0.977 1.160157,-2.43033 1.160157,-4.36133 0,-1.903 -0.384391,-3.34707 -1.150391,-4.33007 -0.768,-0.983 -1.908687,-1.47657 -3.429687,-1.47657 z m 68.527343,0.19141 c -0.193,0.87 -0.476656,1.82247 -0.847656,2.85547 l -1.412109,4.04297 4.560546,0 -1.466796,-4.22266 c -0.107,-0.282 -0.25536,-0.72989 -0.44336,-1.33789 -0.189,-0.608 -0.319625,-1.05589 -0.390625,-1.33789 z m 13.855469,0.0215 0,5.07422 1.77539,0 c 1.191,0 2.05484,-0.2202 2.58984,-0.6582 0.535,-0.439 0.80274,-1.09013 0.80274,-1.95313 0,-0.878 -0.28919,-1.50667 -0.86719,-1.88867 -0.578,-0.382 -1.44833,-0.57422 -2.61133,-0.57422 l -1.68945,0 z"
         style="fill:#ffffff;fill-opacity:1"
         inkscape:connector-curvature="0" />
    </g>
  </g>
</svg>
